<svg version="1.1" id="Layer_1" xmlns="http://www.w3.org/2000/svg" xmlns:xlink="http://www.w3.org/1999/xlink" x="0px" y="0px"
	 width="100%" viewBox="0 0 540 420" enable-background="new 0 0 540 420" xml:space="preserve">
<path fill="#FFFFFF" opacity="1.000000" stroke="none" 
	d="
M277.000000,421.000000 
	C184.666672,421.000000 92.833336,421.000000 1.000000,421.000000 
	C1.000000,281.000000 1.000000,141.000000 1.000000,1.000000 
	C181.000000,1.000000 361.000000,1.000000 541.000000,1.000000 
	C541.000000,141.000000 541.000000,281.000000 541.000000,421.000000 
	C453.166656,421.000000 365.333344,421.000000 277.000000,421.000000 
M225.934036,111.938095 
	C225.934036,111.938095 225.903030,111.816040 225.344437,111.962898 
	C225.121323,112.240204 224.898209,112.517502 224.814026,112.693932 
	C224.814026,112.693932 224.670273,112.600067 223.965485,112.731903 
	C218.299545,115.486397 212.704468,118.403061 206.936462,120.924057 
	C204.224777,122.109245 203.752045,123.697701 204.219376,126.339684 
	C205.375259,132.874100 206.324951,139.444962 207.103775,146.689606 
	C203.488586,153.767456 199.873398,160.845306 196.272354,167.895462 
	C201.922379,173.699463 207.466293,179.394470 213.075699,185.504593 
	C213.075699,185.504593 213.300583,185.859634 213.291946,186.712311 
	C214.235779,192.956161 215.031708,199.228470 216.223816,205.424545 
	C216.535477,207.044495 217.862183,209.492645 219.092590,209.743042 
	C226.077118,211.164413 233.173874,212.034286 240.335602,213.133942 
	C240.335602,213.133942 240.403931,213.045944 240.752701,213.625549 
	C241.167938,213.775467 241.583176,213.925385 241.973526,214.007095 
	C241.973526,214.007095 241.909561,214.041412 242.103134,214.691162 
	C246.639191,219.320358 251.080032,224.050308 255.787277,228.498322 
	C256.793793,229.449387 259.129120,230.160095 260.234863,229.648087 
	C266.680298,226.663467 272.941772,223.281479 279.612396,220.099319 
	C279.612396,220.099319 279.921539,219.928513 280.725525,220.094345 
	C287.570496,221.286362 294.396271,222.622452 301.277832,223.540131 
	C302.545593,223.709167 304.670166,222.539169 305.323059,221.380692 
	C308.726654,215.341660 311.782440,209.106628 315.350128,202.717102 
	C315.598999,202.536148 315.786011,202.305130 316.647888,201.932816 
	C322.422699,199.078903 328.130188,196.074982 334.003082,193.439651 
	C336.613251,192.268417 337.287933,190.841293 336.797882,188.108627 
	C335.601410,181.436966 334.688873,174.714355 333.927673,167.335434 
	C337.147430,161.176483 340.490753,155.076431 343.479034,148.807129 
	C344.052063,147.604843 343.815826,145.181061 342.951904,144.268372 
	C338.173767,139.220642 333.085785,134.466232 328.089996,129.252655 
	C328.089996,129.252655 327.820465,129.015640 327.777985,128.193542 
	C326.798584,121.628036 326.016083,115.022652 324.699921,108.525360 
	C324.375183,106.922226 322.512695,104.734665 321.018219,104.418732 
	C314.377411,103.014862 307.613434,102.193520 300.482269,100.986801 
	C300.482269,100.986801 300.038116,100.934113 299.754974,100.337433 
	C294.860199,95.437538 290.057190,90.438995 284.989685,85.724770 
	C284.028381,84.830482 281.699341,84.365135 280.545471,84.892441 
	C274.273956,87.758476 268.173004,90.997711 261.172058,94.082077 
	C253.997772,92.987518 246.836502,91.787018 239.636475,90.901718 
	C238.423569,90.752579 236.398575,91.607826 235.846344,92.606133 
	C232.579529,98.511597 229.636719,104.596275 226.614868,110.734581 
	C226.614868,110.734581 226.679779,110.636261 226.182510,110.891678 
	C226.057709,111.240433 225.932907,111.589180 225.934036,111.938095 
M281.795898,327.458954 
	C281.795898,330.850952 281.795898,334.242920 281.795898,337.914307 
	C283.994965,337.808960 285.743500,337.725189 287.960297,337.619019 
	C287.960297,332.904205 287.960297,328.537781 287.960297,324.171356 
	C291.024811,326.910065 293.633392,329.733521 295.183929,333.051392 
	C297.456146,337.913483 300.917847,338.709747 305.921204,337.433929 
	C302.413513,332.556183 298.997437,327.805817 295.595673,323.075378 
	C297.559479,321.835266 299.519653,321.278931 300.180084,320.033386 
	C301.417786,317.699097 302.874023,314.771240 302.410278,312.456726 
	C301.999847,310.408264 299.281219,307.617218 297.271057,307.330353 
	C292.153931,306.600098 286.863068,307.087372 281.795959,307.087372 
	C281.795959,313.855713 281.795959,320.163147 281.795898,327.458954 
M253.965363,277.492279 
	C253.297821,277.985321 252.643295,278.883087 251.960587,278.905060 
	C247.823105,279.038177 243.679184,278.971405 239.234131,278.971405 
	C239.234131,274.573181 239.234131,270.491760 239.234131,266.459503 
	C237.029358,266.459503 235.134964,266.459503 233.262268,266.459503 
	C233.262268,276.832123 233.262268,286.875305 233.262268,296.915588 
	C235.432571,296.915588 237.349258,296.915588 239.379425,296.915588 
	C239.379425,291.869385 239.379425,287.108215 239.379425,282.311615 
	C244.305466,282.311615 249.052567,282.311615 253.788345,282.311615 
	C253.788345,287.342682 253.788345,292.088104 253.788345,296.984467 
	C255.918915,296.984467 257.849152,296.984467 259.946014,296.984467 
	C259.946014,286.676727 259.946014,276.589539 259.946014,266.396088 
	C257.869568,266.396088 255.979813,266.396088 253.973724,266.396088 
	C253.973724,269.968994 253.973724,273.279175 253.965363,277.492279 
M308.858337,287.693115 
	C307.191772,285.090759 305.525177,282.488403 303.709167,279.652679 
	C306.253082,278.078430 308.641357,275.160065 307.003693,270.792694 
	C305.240356,266.090118 300.988098,266.193970 296.951050,266.136200 
	C294.003479,266.094055 291.054840,266.127930 288.004333,266.127930 
	C288.004333,276.672607 288.004333,286.763275 288.004333,297.047394 
	C291.841766,297.047394 295.478180,297.198822 299.097351,297.013397 
	C305.183777,296.701538 307.431305,294.634613 308.858337,287.693115 
M165.646805,337.802948 
	C165.899597,335.353302 166.300385,332.907990 166.372009,330.453064 
	C166.492859,326.310394 166.405167,322.161621 166.405167,316.940857 
	C174.506409,324.611633 181.722397,331.444214 189.947220,339.231995 
	C189.947220,327.421539 189.947220,317.244415 189.947220,306.760895 
	C188.645142,306.926178 187.419510,307.081757 186.272141,307.227386 
	C186.272141,313.895477 186.272141,320.192993 186.272141,327.503052 
	C178.398239,319.852631 171.302322,312.958099 164.206406,306.063599 
	C163.740540,306.372650 163.274658,306.681732 162.808792,306.990814 
	C162.808792,316.596466 162.767242,326.202637 162.895889,335.806580 
	C162.905136,336.497345 164.156906,337.171448 165.646805,337.802948 
M145.254501,333.953003 
	C137.110382,336.571198 133.141174,333.766449 133.040955,325.220917 
	C132.969543,319.131592 133.027084,313.040771 133.027084,307.012573 
	C130.826340,307.012573 129.044037,307.012573 127.130638,307.012573 
	C127.130638,313.524841 127.118820,319.819550 127.133568,326.114227 
	C127.152809,334.325653 130.634811,337.885651 138.921082,338.200287 
	C147.919312,338.541962 152.400513,335.135193 152.792664,327.051880 
	C153.113083,320.447449 152.857880,313.815063 152.857880,307.037445 
	C151.627350,307.037445 150.395447,307.037445 149.129639,307.037445 
	C149.129639,313.577545 149.425812,319.897125 148.984756,326.164825 
	C148.806778,328.694092 147.015961,331.109924 145.254501,333.953003 
M342.168243,297.204956 
	C343.042145,297.036621 343.916016,296.868286 344.629272,296.730896 
	C340.625366,287.118866 336.782104,277.794861 332.821930,268.520782 
	C332.373688,267.471069 331.406189,266.389343 330.403168,265.942169 
	C329.933014,265.732544 328.397125,266.816620 328.037323,267.623474 
	C323.741333,277.257233 319.575806,286.949127 315.340363,296.708282 
	C318.145691,297.810944 319.633850,297.244293 320.629364,294.316284 
	C321.481018,291.811493 322.689728,288.462036 324.700287,287.507263 
	C329.742828,285.112701 334.107513,287.541473 336.129517,292.839325 
	C337.082214,295.335510 337.737701,298.080841 342.168243,297.204956 
M259.229431,315.509521 
	C259.229431,313.752350 259.229431,311.995148 259.229431,310.009399 
	C263.714355,310.009399 267.657349,310.009399 271.853546,310.009399 
	C271.777802,308.960571 271.732513,307.473114 271.661469,307.471893 
	C265.501068,307.365204 259.338684,307.373169 253.547928,307.373169 
	C253.547928,317.650055 253.547928,327.683289 253.547928,337.614441 
	C259.921448,337.614441 265.855804,337.614441 271.920410,337.614441 
	C271.920410,336.744202 271.989349,335.534973 271.910522,335.525269 
	C267.840515,335.023834 263.757935,334.624176 259.459045,334.191864 
	C259.459045,330.516205 259.459045,326.928375 259.459045,323.379913 
	C263.160828,321.920380 267.920929,324.757385 271.038696,321.625122 
	C270.919220,321.048309 270.799774,320.471466 270.680328,319.894653 
	C266.934998,319.894653 263.189636,319.894653 259.390625,319.894653 
	C259.324677,318.515137 259.277222,317.522491 259.229431,315.509521 
M204.375427,289.704468 
	C203.801025,286.309906 202.751587,282.912994 202.768524,279.521393 
	C202.791412,274.945160 204.741882,270.836182 209.412689,269.334290 
	C214.016922,267.853821 218.667999,267.984100 222.200790,272.205627 
	C222.303452,272.328278 222.680710,272.221130 223.216431,272.221130 
	C223.546204,270.870850 223.878723,269.509277 224.284698,267.846954 
	C222.187271,267.216614 220.486740,266.541992 218.721725,266.202087 
	C208.397141,264.213776 199.720352,268.041992 197.037720,275.881470 
	C194.898468,282.132996 195.348969,288.263855 200.127319,293.106506 
	C205.639832,298.693237 212.562164,298.656586 219.700073,296.739899 
	C223.120132,295.821533 224.977478,294.094269 223.824844,290.329132 
	C214.819427,296.760773 210.688293,296.764160 204.375427,289.704468 
M232.142960,336.788361 
	C236.184723,326.912323 240.226501,317.036316 244.268265,307.160278 
	C243.825317,306.782684 243.382370,306.405090 242.939423,306.027466 
	C241.653152,307.362000 239.847565,308.476501 239.172348,310.069946 
	C236.531006,316.303284 234.246887,322.687988 231.366669,330.229675 
	C228.092255,321.761505 225.242691,314.392120 222.458694,307.192261 
	C220.239792,307.192261 218.021408,307.192261 215.704086,307.192261 
	C219.591507,316.960388 223.213333,326.390289 227.210709,335.658264 
	C227.672119,336.728027 230.222809,336.896667 232.142960,336.788361 
M318.062622,316.330200 
	C318.408844,314.164856 317.990082,310.946228 319.246307,310.033844 
	C322.853455,307.414093 326.034363,309.535156 328.647980,312.978607 
	C329.223969,311.272003 329.686829,309.900543 330.553833,307.331726 
	C326.251373,307.165039 322.523132,306.600555 318.898010,306.991760 
	C314.817810,307.432037 312.505188,310.320679 312.016724,314.413971 
	C311.528778,318.502716 313.059113,321.564301 316.964233,323.243011 
	C318.794464,324.029785 320.646332,324.770386 322.449646,325.614655 
	C325.433716,327.011658 326.928680,329.362366 325.460266,332.472839 
	C323.882690,335.814636 320.882690,336.924805 317.535461,335.239929 
	C315.756805,334.344604 314.419891,332.571716 312.750549,331.075775 
	C310.632294,335.026306 311.820251,337.342957 316.062714,337.905914 
	C318.513336,338.231140 321.100433,338.404144 323.509064,337.980377 
	C328.043121,337.182587 330.946869,334.366669 331.471161,329.634338 
	C331.969177,325.138794 330.091461,321.921997 325.860046,320.126923 
	C323.420380,319.091980 321.018188,317.968658 318.062622,316.330200 
M399.894745,318.486115 
	C398.706573,316.298431 397.091461,314.234253 396.415558,311.898346 
	C394.809021,306.346375 391.174103,306.071960 386.354950,307.250641 
	C391.840546,317.021393 400.167267,325.418243 396.839874,337.868805 
	C398.639099,337.868805 399.471558,337.902405 400.300140,337.859924 
	C401.246613,337.811493 402.189636,337.695282 403.858246,337.542053 
	C399.883453,324.941772 408.985779,316.752808 414.349731,306.184326 
	C404.982147,307.751709 406.815002,317.470398 401.278809,320.830627 
	C400.917603,320.275696 400.555420,319.719238 399.894745,318.486115 
M365.378784,325.488281 
	C365.378784,329.557861 365.378784,333.627441 365.378784,337.541016 
	C367.757629,337.541016 369.653015,337.541016 371.805969,337.541016 
	C371.805969,328.274780 371.805969,319.372681 371.805969,310.508667 
	C380.168182,309.523712 380.168182,309.523712 380.033966,307.141418 
	C372.121033,307.141418 364.212677,307.141418 355.713562,307.141418 
	C357.594635,312.872070 362.569122,308.387604 365.378845,310.910370 
	C365.378845,315.247864 365.378845,319.870789 365.378784,325.488281 
M201.395294,306.892303 
	C201.395294,317.128845 201.395294,327.365356 201.395294,337.522217 
	C203.016144,337.522217 204.900497,337.522217 206.793854,337.522217 
	C206.793854,327.159332 206.793854,317.137329 206.793854,306.810242 
	C205.109909,306.810242 203.643356,306.810242 201.395294,306.892303 
M346.858734,330.416565 
	C346.858734,322.664185 346.858734,314.911804 346.858734,307.046143 
	C344.772430,307.046143 342.855560,307.046143 340.893005,307.046143 
	C340.893005,317.358032 340.893005,327.427032 340.893005,337.571655 
	C342.983398,337.571655 344.862732,337.571655 346.859711,337.571655 
	C346.859711,335.320496 346.859711,333.354614 346.858734,330.416565 
M275.371704,297.187531 
	C275.924957,296.585724 276.953979,295.988922 276.960388,295.381378 
	C277.061584,285.770813 277.031525,276.158875 277.031525,266.437622 
	C274.778046,266.437622 272.911072,266.437622 270.929901,266.437622 
	C270.929901,276.795349 270.929901,286.856689 270.929901,297.195068 
	C272.274750,297.195068 273.419098,297.195068 275.371704,297.187531 
z"/>
<path fill="#D0112B" opacity="1.000000" stroke="none" 
	d="
M240.403931,213.045944 
	C240.403931,213.045944 240.335602,213.133942 240.107056,212.805130 
	C235.137970,207.396271 230.512543,202.201996 225.620605,197.272202 
	C221.681061,193.302155 217.419357,189.651825 213.300583,185.859634 
	C213.300583,185.859634 213.075699,185.504593 213.046295,184.848236 
	C212.813400,182.058395 212.685715,179.914459 212.393723,177.793167 
	C210.932388,167.176956 209.427994,156.566666 208.111374,145.657013 
	C213.375961,135.839539 218.500214,126.336304 223.520645,116.778549 
	C224.176926,115.529160 224.300156,113.999771 224.670273,112.600067 
	C224.670273,112.600067 224.814026,112.693932 225.030014,112.702957 
	C225.465012,112.413338 225.684021,112.114693 225.903030,111.816040 
	C225.903030,111.816040 225.934036,111.938095 226.141022,111.820328 
	C226.458588,111.347122 226.569183,110.991692 226.679779,110.636261 
	C226.679779,110.636261 226.614868,110.734581 226.983246,110.776978 
	C229.178757,110.075890 231.040512,109.406891 232.827271,108.576546 
	C242.590576,104.039284 252.335434,99.462379 262.497070,94.933685 
	C275.284363,96.956879 287.661255,98.945496 300.038116,100.934113 
	C300.038116,100.934113 300.482269,100.986801 300.761230,101.405273 
	C309.966949,110.887711 318.893707,119.951675 327.820465,129.015640 
	C327.820465,129.015640 328.089996,129.252655 328.063171,129.895508 
	C328.186554,132.334335 328.248505,134.142822 328.501373,135.924240 
	C330.021576,146.632935 331.585602,157.335403 332.951599,168.341568 
	C327.149200,179.770142 321.530182,190.897110 315.911194,202.024078 
	C315.786011,202.305130 315.598999,202.536148 314.789825,202.879333 
	C302.793518,208.670563 291.357513,214.299530 279.921539,219.928497 
	C279.921539,219.928513 279.612396,220.099319 279.056915,219.913605 
	C266.304138,217.832397 254.106857,215.936905 241.909561,214.041412 
	C241.909561,214.041412 241.973526,214.007095 241.814087,213.753204 
	C241.237732,213.348175 240.820831,213.197067 240.403931,213.045944 
z"/>
<path fill="#272726" opacity="1.000000" stroke="none" 
	d="
M281.795929,326.964783 
	C281.795959,320.163147 281.795959,313.855713 281.795959,307.087372 
	C286.863068,307.087372 292.153931,306.600098 297.271057,307.330353 
	C299.281219,307.617218 301.999847,310.408264 302.410278,312.456726 
	C302.874023,314.771240 301.417786,317.699097 300.180084,320.033386 
	C299.519653,321.278931 297.559479,321.835266 295.595673,323.075378 
	C298.997437,327.805817 302.413513,332.556183 305.921204,337.433929 
	C300.917847,338.709747 297.456146,337.913483 295.183929,333.051392 
	C293.633392,329.733521 291.024811,326.910065 287.960297,324.171356 
	C287.960297,328.537781 287.960297,332.904205 287.960297,337.619019 
	C285.743500,337.725189 283.994965,337.808960 281.795898,337.914307 
	C281.795898,334.242920 281.795898,330.850952 281.795929,326.964783 
M288.065369,310.145782 
	C288.065369,313.700928 288.065369,317.256104 288.065369,320.791077 
	C293.929047,320.957245 296.748718,318.905975 296.758209,314.782379 
	C296.767334,310.826843 294.142151,309.123566 288.065369,310.145782 
z"/>
<path fill="#272726" opacity="1.000000" stroke="none" 
	d="
M253.969543,277.040802 
	C253.973724,273.279175 253.973724,269.968994 253.973724,266.396088 
	C255.979813,266.396088 257.869568,266.396088 259.946014,266.396088 
	C259.946014,276.589539 259.946014,286.676727 259.946014,296.984467 
	C257.849152,296.984467 255.918915,296.984467 253.788345,296.984467 
	C253.788345,292.088104 253.788345,287.342682 253.788345,282.311615 
	C249.052567,282.311615 244.305466,282.311615 239.379425,282.311615 
	C239.379425,287.108215 239.379425,291.869385 239.379425,296.915588 
	C237.349258,296.915588 235.432571,296.915588 233.262268,296.915588 
	C233.262268,286.875305 233.262268,276.832123 233.262268,266.459503 
	C235.134964,266.459503 237.029358,266.459503 239.234131,266.459503 
	C239.234131,270.491760 239.234131,274.573181 239.234131,278.971405 
	C243.679184,278.971405 247.823105,279.038177 251.960587,278.905060 
	C252.643295,278.883087 253.297821,277.985321 253.969543,277.040802 
z"/>
<path fill="#282827" opacity="1.000000" stroke="none" 
	d="
M308.863495,288.082458 
	C307.431305,294.634613 305.183777,296.701538 299.097351,297.013397 
	C295.478180,297.198822 291.841766,297.047394 288.004333,297.047394 
	C288.004333,286.763275 288.004333,276.672607 288.004333,266.127930 
	C291.054840,266.127930 294.003479,266.094055 296.951050,266.136200 
	C300.988098,266.193970 305.240356,266.090118 307.003693,270.792694 
	C308.641357,275.160065 306.253082,278.078430 303.709167,279.652679 
	C305.525177,282.488403 307.191772,285.090759 308.863495,288.082458 
M302.471008,287.686676 
	C301.855286,282.488892 298.600098,281.497681 294.113220,282.121429 
	C294.113220,286.357666 294.113220,290.259613 294.113220,294.335083 
	C298.983643,294.946777 302.153259,293.708984 302.471008,287.686676 
M296.215149,268.875580 
	C295.440430,269.433716 294.048187,269.940338 293.996582,270.558838 
	C293.757599,273.422424 293.890961,276.317078 293.890961,279.256439 
	C297.782867,279.393250 300.624603,278.887543 301.061249,274.972565 
	C301.395203,271.978638 301.003113,269.239777 296.215149,268.875580 
z"/>
<path fill="#252524" opacity="1.000000" stroke="none" 
	d="
M165.238876,337.828125 
	C164.156906,337.171448 162.905136,336.497345 162.895889,335.806580 
	C162.767242,326.202637 162.808792,316.596466 162.808792,306.990814 
	C163.274658,306.681732 163.740540,306.372650 164.206406,306.063599 
	C171.302322,312.958099 178.398239,319.852631 186.272141,327.503052 
	C186.272141,320.192993 186.272141,313.895477 186.272141,307.227386 
	C187.419510,307.081757 188.645142,306.926178 189.947220,306.760895 
	C189.947220,317.244415 189.947220,327.421539 189.947220,339.231995 
	C181.722397,331.444214 174.506409,324.611633 166.405167,316.940857 
	C166.405167,322.161621 166.492859,326.310394 166.372009,330.453064 
	C166.300385,332.907990 165.899597,335.353302 165.238876,337.828125 
z"/>
<path fill="#272726" opacity="1.000000" stroke="none" 
	d="
M145.606812,333.765198 
	C147.015961,331.109924 148.806778,328.694092 148.984756,326.164825 
	C149.425812,319.897125 149.129639,313.577545 149.129639,307.037445 
	C150.395447,307.037445 151.627350,307.037445 152.857880,307.037445 
	C152.857880,313.815063 153.113083,320.447449 152.792664,327.051880 
	C152.400513,335.135193 147.919312,338.541962 138.921082,338.200287 
	C130.634811,337.885651 127.152809,334.325653 127.133568,326.114227 
	C127.118820,319.819550 127.130638,313.524841 127.130638,307.012573 
	C129.044037,307.012573 130.826340,307.012573 133.027084,307.012573 
	C133.027084,313.040771 132.969543,319.131592 133.040955,325.220917 
	C133.141174,333.766449 137.110382,336.571198 145.606812,333.765198 
z"/>
<path fill="#272726" opacity="1.000000" stroke="none" 
	d="
M341.798279,297.204956 
	C337.737701,298.080841 337.082214,295.335510 336.129517,292.839325 
	C334.107513,287.541473 329.742828,285.112701 324.700287,287.507263 
	C322.689728,288.462036 321.481018,291.811493 320.629364,294.316284 
	C319.633850,297.244293 318.145691,297.810944 315.340363,296.708282 
	C319.575806,286.949127 323.741333,277.257233 328.037323,267.623474 
	C328.397125,266.816620 329.933014,265.732544 330.403168,265.942169 
	C331.406189,266.389343 332.373688,267.471069 332.821930,268.520782 
	C336.782104,277.794861 340.625366,287.118866 344.629272,296.730896 
	C343.916016,296.868286 343.042145,297.036621 341.798279,297.204956 
M326.854431,284.576843 
	C328.593445,284.576843 330.332458,284.576843 332.827637,284.576843 
	C331.266815,280.725677 330.075226,277.785461 328.883636,274.845245 
	C328.405396,274.841949 327.927185,274.838654 327.448975,274.835358 
	C326.976990,278.068634 326.504974,281.301910 326.854431,284.576843 
z"/>
<path fill="#2F2F2E" opacity="1.000000" stroke="none" 
	d="
M259.229614,316.019684 
	C259.277222,317.522491 259.324677,318.515137 259.390625,319.894653 
	C263.189636,319.894653 266.934998,319.894653 270.680328,319.894653 
	C270.799774,320.471466 270.919220,321.048309 271.038696,321.625122 
	C267.920929,324.757385 263.160828,321.920380 259.459045,323.379913 
	C259.459045,326.928375 259.459045,330.516205 259.459045,334.191864 
	C263.757935,334.624176 267.840515,335.023834 271.910522,335.525269 
	C271.989349,335.534973 271.920410,336.744202 271.920410,337.614441 
	C265.855804,337.614441 259.921448,337.614441 253.547928,337.614441 
	C253.547928,327.683289 253.547928,317.650055 253.547928,307.373169 
	C259.338684,307.373169 265.501068,307.365204 271.661469,307.471893 
	C271.732513,307.473114 271.777802,308.960571 271.853546,310.009399 
	C267.657349,310.009399 263.714355,310.009399 259.229431,310.009399 
	C259.229431,311.995148 259.229431,313.752350 259.229614,316.019684 
z"/>
<path fill="#2B2B2A" opacity="1.000000" stroke="none" 
	d="
M204.611588,290.024628 
	C210.688293,296.764160 214.819427,296.760773 223.824677,290.329041 
	C224.977478,294.094269 223.120132,295.821533 219.700073,296.739899 
	C212.562164,298.656586 205.639832,298.693237 200.127319,293.106506 
	C195.348969,288.263855 194.898468,282.132996 197.037720,275.881470 
	C199.720352,268.041992 208.397141,264.213776 218.721725,266.202087 
	C220.486740,266.541992 222.187271,267.216614 224.284698,267.846954 
	C223.878723,269.509277 223.546204,270.870850 223.216431,272.221130 
	C222.680710,272.221130 222.303452,272.328278 222.200790,272.205627 
	C218.667999,267.984100 214.016922,267.853821 209.412689,269.334290 
	C204.741882,270.836182 202.791412,274.945160 202.768524,279.521393 
	C202.751587,282.912994 203.801025,286.309906 204.611588,290.024628 
z"/>
<path fill="#272726" opacity="1.000000" stroke="none" 
	d="
M231.973907,337.135742 
	C230.222809,336.896667 227.672119,336.728027 227.210709,335.658264 
	C223.213333,326.390289 219.591507,316.960388 215.704086,307.192261 
	C218.021408,307.192261 220.239792,307.192261 222.458694,307.192261 
	C225.242691,314.392120 228.092255,321.761505 231.366669,330.229675 
	C234.246887,322.687988 236.531006,316.303284 239.172348,310.069946 
	C239.847565,308.476501 241.653152,307.362000 242.939423,306.027466 
	C243.382370,306.405090 243.825317,306.782684 244.268265,307.160278 
	C240.226501,317.036316 236.184723,326.912323 231.973907,337.135742 
z"/>
<path fill="#2A2A29" opacity="1.000000" stroke="none" 
	d="
M318.330872,316.607666 
	C321.018188,317.968658 323.420380,319.091980 325.860046,320.126923 
	C330.091461,321.921997 331.969177,325.138794 331.471161,329.634338 
	C330.946869,334.366669 328.043121,337.182587 323.509064,337.980377 
	C321.100433,338.404144 318.513336,338.231140 316.062714,337.905914 
	C311.820251,337.342957 310.632294,335.026306 312.750549,331.075775 
	C314.419891,332.571716 315.756805,334.344604 317.535461,335.239929 
	C320.882690,336.924805 323.882690,335.814636 325.460266,332.472839 
	C326.928680,329.362366 325.433716,327.011658 322.449646,325.614655 
	C320.646332,324.770386 318.794464,324.029785 316.964233,323.243011 
	C313.059113,321.564301 311.528778,318.502716 312.016724,314.413971 
	C312.505188,310.320679 314.817810,307.432037 318.898010,306.991760 
	C322.523132,306.600555 326.251373,307.165039 330.553833,307.331726 
	C329.686829,309.900543 329.223969,311.272003 328.647980,312.978607 
	C326.034363,309.535156 322.853455,307.414093 319.246307,310.033844 
	C317.990082,310.946228 318.408844,314.164856 318.330872,316.607666 
z"/>
<path fill="#272726" opacity="1.000000" stroke="none" 
	d="
M400.044006,318.824463 
	C400.555420,319.719238 400.917603,320.275696 401.278809,320.830627 
	C406.815002,317.470398 404.982147,307.751709 414.349731,306.184326 
	C408.985779,316.752808 399.883453,324.941772 403.858246,337.542053 
	C402.189636,337.695282 401.246613,337.811493 400.300140,337.859924 
	C399.471558,337.902405 398.639099,337.868805 396.839874,337.868805 
	C400.167267,325.418243 391.840546,317.021393 386.354950,307.250641 
	C391.174103,306.071960 394.809021,306.346375 396.415558,311.898346 
	C397.091461,314.234253 398.706573,316.298431 400.044006,318.824463 
z"/>
<path fill="#9A262D" opacity="1.000000" stroke="none" 
	d="
M333.134949,168.039963 
	C331.585602,157.335403 330.021576,146.632935 328.501373,135.924240 
	C328.248505,134.142822 328.186554,132.334335 328.070190,130.074829 
	C333.085785,134.466232 338.173767,139.220642 342.951904,144.268372 
	C343.815826,145.181061 344.052063,147.604843 343.479034,148.807129 
	C340.490753,155.076431 337.147430,161.176483 333.663147,167.682190 
	C333.398651,168.028961 333.134949,168.039963 333.134949,168.039963 
z"/>
<path fill="#9C292F" opacity="1.000000" stroke="none" 
	d="
M280.323547,220.011414 
	C291.357513,214.299530 302.793518,208.670563 314.594391,202.990692 
	C311.782440,209.106628 308.726654,215.341660 305.323059,221.380692 
	C304.670166,222.539169 302.545593,223.709167 301.277832,223.540131 
	C294.396271,222.622452 287.570496,221.286362 280.323547,220.011414 
z"/>
<path fill="#7F2734" opacity="1.000000" stroke="none" 
	d="
M213.296265,186.285980 
	C217.419357,189.651825 221.681061,193.302155 225.620605,197.272202 
	C230.512543,202.201996 235.137970,207.396271 240.055481,212.784073 
	C233.173874,212.034286 226.077118,211.164413 219.092590,209.743042 
	C217.862183,209.492645 216.535477,207.044495 216.223816,205.424545 
	C215.031708,199.228470 214.235779,192.956161 213.296265,186.285980 
z"/>
<path fill="#9C2A31" opacity="1.000000" stroke="none" 
	d="
M207.938766,145.954300 
	C209.427994,156.566666 210.932388,167.176956 212.393723,177.793167 
	C212.685715,179.914459 212.813400,182.058395 213.013550,184.640671 
	C207.466293,179.394470 201.922379,173.699463 196.272354,167.895462 
	C199.873398,160.845306 203.488586,153.767456 207.375519,146.328217 
	C207.647263,145.966843 207.938766,145.954300 207.938766,145.954300 
z"/>
<path fill="#9C292F" opacity="1.000000" stroke="none" 
	d="
M327.799225,128.604584 
	C318.893707,119.951675 309.966949,110.887711 300.967102,101.492645 
	C307.613434,102.193520 314.377411,103.014862 321.018219,104.418732 
	C322.512695,104.734665 324.375183,106.922226 324.699921,108.525360 
	C326.016083,115.022652 326.798584,121.628036 327.799225,128.604584 
z"/>
<path fill="#9C292F" opacity="1.000000" stroke="none" 
	d="
M262.086639,94.899101 
	C252.335434,99.462379 242.590576,104.039284 232.827271,108.576546 
	C231.040512,109.406891 229.178757,110.075890 226.968262,110.720009 
	C229.636719,104.596275 232.579529,98.511597 235.846344,92.606133 
	C236.398575,91.607826 238.423569,90.752579 239.636475,90.901718 
	C246.836502,91.787018 253.997772,92.987518 261.605652,94.293404 
	C262.039276,94.504730 262.086639,94.899101 262.086639,94.899101 
z"/>
<path fill="#7F2734" opacity="1.000000" stroke="none" 
	d="
M332.951599,168.341568 
	C333.134949,168.039963 333.398651,168.028961 333.530334,168.020615 
	C334.688873,174.714355 335.601410,181.436966 336.797882,188.108627 
	C337.287933,190.841293 336.613251,192.268417 334.003082,193.439651 
	C328.130188,196.074982 322.422699,199.078903 316.279541,201.978455 
	C321.530182,190.897110 327.149200,179.770142 332.951599,168.341568 
z"/>
<path fill="#632D2D" opacity="1.000000" stroke="none" 
	d="
M262.497070,94.933685 
	C262.086639,94.899101 262.039276,94.504730 262.026306,94.306602 
	C268.173004,90.997711 274.273956,87.758476 280.545471,84.892441 
	C281.699341,84.365135 284.028381,84.830482 284.989685,85.724770 
	C290.057190,90.438995 294.860199,95.437538 299.896545,100.635773 
	C287.661255,98.945496 275.284363,96.956879 262.497070,94.933685 
z"/>
<path fill="#632D2D" opacity="1.000000" stroke="none" 
	d="
M242.006348,214.366287 
	C254.106857,215.936905 266.304138,217.832397 278.883423,219.880798 
	C272.941772,223.281479 266.680298,226.663467 260.234863,229.648087 
	C259.129120,230.160095 256.793793,229.449387 255.787277,228.498322 
	C251.080032,224.050308 246.639191,219.320358 242.006348,214.366287 
z"/>
<path fill="#7F2734" opacity="1.000000" stroke="none" 
	d="
M208.111374,145.657013 
	C207.938766,145.954300 207.647263,145.966843 207.502380,145.984009 
	C206.324951,139.444962 205.375259,132.874100 204.219376,126.339684 
	C203.752045,123.697701 204.224777,122.109245 206.936462,120.924057 
	C212.704468,118.403061 218.299545,115.486397 224.317871,112.665985 
	C224.300156,113.999771 224.176926,115.529160 223.520645,116.778549 
	C218.500214,126.336304 213.375961,135.839539 208.111374,145.657013 
z"/>
<path fill="#353534" opacity="1.000000" stroke="none" 
	d="
M365.378815,324.991028 
	C365.378845,319.870789 365.378845,315.247864 365.378845,310.910370 
	C362.569122,308.387604 357.594635,312.872070 355.713562,307.141418 
	C364.212677,307.141418 372.121033,307.141418 380.033966,307.141418 
	C380.168182,309.523712 380.168182,309.523712 371.805969,310.508667 
	C371.805969,319.372681 371.805969,328.274780 371.805969,337.541016 
	C369.653015,337.541016 367.757629,337.541016 365.378784,337.541016 
	C365.378784,333.627441 365.378784,329.557861 365.378815,324.991028 
z"/>
<path fill="#252524" opacity="1.000000" stroke="none" 
	d="
M201.786041,306.851257 
	C203.643356,306.810242 205.109909,306.810242 206.793854,306.810242 
	C206.793854,317.137329 206.793854,327.159332 206.793854,337.522217 
	C204.900497,337.522217 203.016144,337.522217 201.395294,337.522217 
	C201.395294,327.365356 201.395294,317.128845 201.786041,306.851257 
z"/>
<path fill="#242423" opacity="1.000000" stroke="none" 
	d="
M346.859222,330.902649 
	C346.859711,333.354614 346.859711,335.320496 346.859711,337.571655 
	C344.862732,337.571655 342.983398,337.571655 340.893005,337.571655 
	C340.893005,327.427032 340.893005,317.358032 340.893005,307.046143 
	C342.855560,307.046143 344.772430,307.046143 346.858734,307.046143 
	C346.858734,314.911804 346.858734,322.664185 346.859222,330.902649 
z"/>
<path fill="#242423" opacity="1.000000" stroke="none" 
	d="
M274.967560,297.191284 
	C273.419098,297.195068 272.274750,297.195068 270.929901,297.195068 
	C270.929901,286.856689 270.929901,276.795349 270.929901,266.437622 
	C272.911072,266.437622 274.778046,266.437622 277.031525,266.437622 
	C277.031525,276.158875 277.061584,285.770813 276.960388,295.381378 
	C276.953979,295.988922 275.924957,296.585724 274.967560,297.191284 
z"/>
<path fill="#7F2734" opacity="1.000000" stroke="none" 
	d="
M240.578308,213.335754 
	C240.820831,213.197067 241.237732,213.348175 241.826523,213.787292 
	C241.583176,213.925385 241.167938,213.775467 240.578308,213.335754 
z"/>
<path fill="#7F2734" opacity="1.000000" stroke="none" 
	d="
M225.623734,111.889465 
	C225.684021,112.114693 225.465012,112.413338 224.960541,112.753403 
	C224.898209,112.517502 225.121323,112.240204 225.623734,111.889465 
z"/>
<path fill="#9C292F" opacity="1.000000" stroke="none" 
	d="
M226.431152,110.763969 
	C226.569183,110.991692 226.458588,111.347122 226.078049,111.820244 
	C225.932907,111.589180 226.057709,111.240433 226.431152,110.763969 
z"/>
<path fill="#F5F5F5" opacity="1.000000" stroke="none" 
	d="
M288.359131,309.834625 
	C294.142151,309.123566 296.767334,310.826843 296.758209,314.782379 
	C296.748718,318.905975 293.929047,320.957245 288.065369,320.791077 
	C288.065369,317.256104 288.065369,313.700928 288.359131,309.834625 
z"/>
<path fill="#F5F5F5" opacity="1.000000" stroke="none" 
	d="
M302.479248,288.065887 
	C302.153259,293.708984 298.983643,294.946777 294.113220,294.335083 
	C294.113220,290.259613 294.113220,286.357666 294.113220,282.121429 
	C298.600098,281.497681 301.855286,282.488892 302.479248,288.065887 
z"/>
<path fill="#FFFFFF" opacity="1.000000" stroke="none" 
	d="
M296.664124,268.879425 
	C301.003113,269.239777 301.395203,271.978638 301.061249,274.972565 
	C300.624603,278.887543 297.782867,279.393250 293.890961,279.256439 
	C293.890961,276.317078 293.757599,273.422424 293.996582,270.558838 
	C294.048187,269.940338 295.440430,269.433716 296.664124,268.879425 
z"/>
<path fill="#E3E3E3" opacity="1.000000" stroke="none" 
	d="
M326.443726,284.556030 
	C326.504974,281.301910 326.976990,278.068634 327.448975,274.835358 
	C327.927185,274.838654 328.405396,274.841949 328.883636,274.845245 
	C330.075226,277.785461 331.266815,280.725677 332.827637,284.576843 
	C330.332458,284.576843 328.593445,284.576843 326.443726,284.556030 
z"/>
</svg>