<svg version="1.1" id="Layer_1" xmlns="http://www.w3.org/2000/svg" xmlns:xlink="http://www.w3.org/1999/xlink" x="0px" y="0px"
	 width="100%" viewBox="0 0 289 174" enable-background="new 0 0 289 174" xml:space="preserve">
<path fill="#FDFEFD" opacity="1.000000" stroke="none" 
	d="
M145.000000,1.000000 
	C193.279068,1.000000 241.558151,1.000000 289.918610,1.000000 
	C289.918610,58.880527 289.918610,116.761208 289.918610,175.000000 
	C266.647003,175.000000 243.292160,175.000000 219.632111,174.658752 
	C230.181732,172.465408 238.373199,165.987747 245.904861,158.616272 
	C262.388214,142.483536 275.502258,123.631195 288.688446,104.855476 
	C288.889923,104.568581 288.627594,103.955956 288.540527,103.081741 
	C279.901184,103.081741 271.338226,103.081741 262.372406,103.081741 
	C267.629791,83.053871 272.755768,63.526516 277.839325,43.543217 
	C275.998871,42.937698 274.201111,42.660664 272.402832,42.657375 
	C236.963440,42.592533 201.523987,42.559460 166.096695,42.136692 
	C166.592575,38.664135 167.126770,35.581722 167.551575,32.484310 
	C169.761993,16.367348 161.944016,5.246383 146.064362,1.825613 
	C145.668640,1.740369 145.352997,1.283530 145.000000,1.000000 
z"/>
<path fill="#06694E" opacity="1.000000" stroke="none" 
	d="
M144.535355,1.000000 
	C145.352997,1.283530 145.668640,1.740369 146.064362,1.825613 
	C161.944016,5.246383 169.761993,16.367348 167.551575,32.484310 
	C167.126770,35.581722 166.592575,38.664135 166.292328,42.522774 
	C168.241592,43.528709 170.007126,43.969822 171.773163,43.971790 
	C207.142670,44.011250 242.512222,44.000099 277.881775,43.999157 
	C272.755768,63.526516 267.629791,83.053871 262.372406,103.081741 
	C271.338226,103.081741 279.901184,103.081741 288.540527,103.081741 
	C288.627594,103.955956 288.889923,104.568581 288.688446,104.855476 
	C275.502258,123.631195 262.388214,142.483536 245.904861,158.616272 
	C238.373199,165.987747 230.181732,172.465408 219.163452,174.658752 
	C214.975449,175.000000 210.950912,175.000000 206.303284,174.671906 
	C200.389740,171.587448 195.099304,168.831070 189.845627,166.093842 
	C182.415649,168.868881 174.207825,171.934433 166.000000,175.000000 
	C161.310745,175.000000 156.621490,175.000000 151.310638,174.667389 
	C137.982498,170.700043 131.507416,163.645477 130.965271,152.579041 
	C130.763428,148.458847 130.944901,144.319885 130.701752,139.850800 
	C128.658737,139.340790 126.865669,139.021530 125.072334,139.020035 
	C89.856445,138.990631 54.640495,139.014877 19.424675,138.956329 
	C17.328064,138.952850 15.232458,138.346024 13.118773,137.634125 
	C18.492386,117.240776 23.883610,97.233269 29.517120,76.326599 
	C21.195284,76.326599 13.903610,76.463394 6.624598,76.220589 
	C5.010986,76.166771 3.442078,74.772774 2.109212,73.765182 
	C10.733730,62.140469 18.690092,50.413815 27.566830,39.431042 
	C40.591446,23.316301 53.638924,6.946140 75.000000,1.000000 
	C75.750000,1.000000 76.500000,1.000000 77.867409,1.295243 
	C80.656548,1.393657 82.828270,1.196828 85.000000,1.000000 
	C85.444443,1.000000 85.888893,1.000000 86.813316,1.353808 
	C94.757088,2.400992 100.380684,6.440494 104.213570,10.870919 
	C113.654289,7.391971 122.327148,4.195985 131.000000,0.999999 
	C135.356903,1.000000 139.713806,1.000000 144.535355,1.000000 
M38.619083,72.163971 
	C38.551617,72.259705 38.405540,72.398872 38.430283,72.443649 
	C38.537598,72.637833 38.694771,72.804459 38.844051,73.739632 
	C33.635235,93.054764 28.426416,112.369896 23.146200,131.949783 
	C39.931561,131.949783 56.225979,131.949783 72.887390,131.949783 
	C74.092300,127.510361 75.294151,123.082214 76.539093,118.495323 
	C80.052910,118.495323 83.435341,118.495323 87.181808,118.495323 
	C86.075111,123.112602 85.048668,127.395073 83.920547,132.101730 
	C99.825905,132.101730 115.296715,132.183731 130.762238,131.936218 
	C131.920975,131.917694 133.674637,129.719666 134.085602,128.238922 
	C140.163864,106.338348 146.150818,84.411255 151.962692,62.438423 
	C154.674347,52.186577 157.567383,41.922359 159.284119,31.483814 
	C161.192398,19.880779 154.788910,11.259618 143.181290,9.983809 
	C136.953201,9.299271 130.080994,9.949602 124.174255,11.970220 
	C116.124107,14.724073 108.718193,19.361135 100.961632,23.227842 
	C99.049133,15.614011 94.018829,10.653157 85.325691,9.566892 
	C73.341003,8.069325 64.034164,13.398874 55.628807,20.962646 
	C40.793549,34.312531 29.196550,50.398621 17.606672,66.473160 
	C17.180477,67.064270 17.230791,67.998940 17.540764,69.465546 
	C24.800776,69.682938 32.060787,69.900322 39.243259,70.761566 
	C39.140476,71.175163 39.037693,71.588768 38.619083,72.163971 
M209.459122,49.531902 
	C208.829636,49.358616 208.200516,49.035622 207.570602,49.034069 
	C194.084915,49.000832 180.599014,48.978405 167.113647,49.049503 
	C166.086990,49.054916 165.064056,49.772610 163.674225,50.801338 
	C155.785065,79.948502 147.809998,109.072998 140.105011,138.268768 
	C139.024765,142.362076 138.754868,146.835556 139.009644,151.079025 
	C139.485825,159.009628 144.364502,164.184586 152.097046,165.971497 
	C161.874039,168.230881 170.927795,165.742599 179.561905,161.430313 
	C184.518204,158.954865 189.179276,155.888306 193.998978,153.072815 
	C198.800140,164.639526 205.500122,168.668655 217.102875,166.107422 
	C222.007538,165.024750 227.123749,163.137451 231.174713,160.254257 
	C249.096451,147.498795 260.791718,129.157822 274.525116,111.293465 
	C267.698395,111.293465 261.934753,111.206589 256.175354,111.325096 
	C252.548767,111.399712 251.470810,110.305206 252.599564,106.545715 
	C255.127808,98.125053 257.236053,89.578064 259.503204,81.079285 
	C262.144073,71.179695 264.772064,61.276657 267.458588,51.176140 
	C251.811325,51.176140 236.705994,51.176140 221.687714,51.176140 
	C217.329315,64.937012 216.823593,65.334152 207.263443,62.788422 
	C208.157196,58.596786 209.049988,54.409634 209.459122,49.531902 
z"/>
<path fill="#FCFDFD" opacity="1.000000" stroke="none" 
	d="
M1.852587,73.995857 
	C3.442078,74.772774 5.010986,76.166771 6.624598,76.220589 
	C13.903610,76.463394 21.195284,76.326599 29.517120,76.326599 
	C23.883610,97.233269 18.492386,117.240776 13.008773,138.084549 
	C13.953055,139.391144 14.989479,140.271896 16.026434,140.272522 
	C54.334782,140.295471 92.643181,140.236923 130.951569,140.189484 
	C130.944901,144.319885 130.763428,148.458847 130.965271,152.579041 
	C131.507416,163.645477 137.982498,170.700043 150.844513,174.667389 
	C101.087288,175.000000 51.174576,175.000000 1.000000,175.000000 
	C1.000000,141.646225 1.000000,108.291771 1.213139,74.465958 
	C1.426277,73.994591 1.852587,73.995857 1.852587,73.995857 
z"/>
<path fill="#FEFEFE" opacity="1.000000" stroke="none" 
	d="
M2.109213,73.765182 
	C1.852587,73.995857 1.426277,73.994591 1.213139,73.997299 
	C1.000000,49.739300 1.000000,25.478598 1.000000,1.000000 
	C25.353794,1.000000 49.708241,1.000000 74.531342,1.000000 
	C53.638924,6.946140 40.591446,23.316301 27.566830,39.431042 
	C18.690092,50.413815 10.733730,62.140469 2.109213,73.765182 
z"/>
<path fill="#F8FAF9" opacity="1.000000" stroke="none" 
	d="
M130.531342,0.999999 
	C122.327148,4.195985 113.654289,7.391971 104.213570,10.870919 
	C100.380684,6.440494 94.757088,2.400992 87.146652,1.353808 
	C101.354225,1.000000 115.708458,1.000000 130.531342,0.999999 
z"/>
<path fill="#F9FBFB" opacity="1.000000" stroke="none" 
	d="
M166.468658,175.000000 
	C174.207825,171.934433 182.415649,168.868881 189.845627,166.093842 
	C195.099304,168.831070 200.389740,171.587448 205.840088,174.671906 
	C192.979111,175.000000 179.958206,175.000000 166.468658,175.000000 
z"/>
<path fill="#327963" opacity="1.000000" stroke="none" 
	d="
M84.562500,1.000000 
	C82.828270,1.196828 80.656548,1.393657 78.242409,1.295243 
	C80.041664,1.000000 82.083336,1.000000 84.562500,1.000000 
z"/>
<path fill="#005F41" opacity="1.000000" stroke="none" 
	d="
M277.839325,43.543217 
	C242.512222,44.000099 207.142670,44.011250 171.773163,43.971790 
	C170.007126,43.969822 168.241592,43.528709 166.280182,42.905998 
	C201.523987,42.559460 236.963440,42.592533 272.402832,42.657375 
	C274.201111,42.660664 275.998871,42.937698 277.839325,43.543217 
z"/>
<path fill="#FBFCFC" opacity="1.000000" stroke="none" 
	d="
M209.942780,50.222481 
	C209.049988,54.409634 208.157196,58.596786 207.263443,62.788422 
	C216.823593,65.334152 217.329315,64.937012 221.687714,51.176140 
	C236.705994,51.176140 251.811325,51.176140 267.458588,51.176140 
	C264.772064,61.276657 262.144073,71.179695 259.503204,81.079285 
	C257.236053,89.578064 255.127808,98.125053 252.599564,106.545715 
	C251.470810,110.305206 252.548767,111.399712 256.175354,111.325096 
	C261.934753,111.206589 267.698395,111.293465 274.525116,111.293465 
	C260.791718,129.157822 249.096451,147.498795 231.174713,160.254257 
	C227.123749,163.137451 222.007538,165.024750 217.102875,166.107422 
	C205.500122,168.668655 198.800140,164.639526 193.998978,153.072815 
	C189.179276,155.888306 184.518204,158.954865 179.561905,161.430313 
	C170.927795,165.742599 161.874039,168.230881 152.097046,165.971497 
	C144.364502,164.184586 139.485825,159.009628 139.009644,151.079025 
	C138.754868,146.835556 139.024765,142.362076 140.105011,138.268768 
	C147.809998,109.072998 155.785065,79.948502 164.321457,50.521667 
	C179.960052,50.235493 194.951416,50.228985 209.942780,50.222481 
M213.312546,90.464798 
	C212.994614,89.047287 212.225555,87.553017 212.451035,86.227966 
	C212.946686,83.314964 213.919571,80.480125 214.745010,77.627083 
	C215.661713,74.458565 214.506668,72.919823 211.212296,72.750626 
	C206.653351,72.516495 203.933960,74.024567 202.618271,78.924988 
	C201.498581,83.095375 202.311661,88.555069 196.046036,90.614227 
	C187.382721,90.825546 178.719406,91.036873 169.378815,91.410309 
	C168.570938,92.431412 167.344254,93.334839 167.019241,94.491600 
	C163.296844,107.740784 159.639191,121.010040 156.240875,134.344437 
	C155.995132,135.308655 157.723251,137.690323 158.843185,137.923004 
	C162.776169,138.740112 165.937912,137.785583 167.113495,133.078293 
	C169.605103,123.101418 172.365997,113.190880 175.093246,103.274261 
	C176.131729,99.498199 179.964203,97.509369 183.641891,99.409058 
	C184.650452,99.930023 184.857864,103.308823 184.409286,105.123131 
	C182.180557,114.137451 179.568787,123.056267 177.175140,132.030930 
	C175.787766,137.232681 177.372803,139.223206 182.526581,137.873077 
	C184.550644,137.342834 186.884094,134.864227 187.540359,132.787445 
	C190.286209,124.098206 192.445694,115.223824 194.826584,106.419060 
	C196.950424,98.564919 200.409363,96.995399 208.996750,100.326981 
	C206.205261,110.803612 203.324341,121.313049 200.671188,131.879684 
	C200.242859,133.585602 200.314926,136.850159 201.043610,137.136765 
	C202.993057,137.903534 205.743668,138.122269 207.569138,137.265625 
	C209.160110,136.519012 210.417068,134.152725 210.968567,132.254288 
	C213.512558,123.496918 215.763885,114.654388 218.109161,105.839478 
	C220.017838,98.665489 220.950150,98.123459 229.205978,99.895477 
	C228.928070,101.438385 228.750168,103.032120 228.346710,104.566551 
	C225.901031,113.868118 223.363373,123.145599 220.941391,132.453247 
	C219.777237,136.927078 221.522858,139.164978 225.822723,137.887421 
	C228.007401,137.238312 230.569565,134.753799 231.224976,132.576431 
	C234.998978,120.038841 238.270676,107.349480 241.647034,94.694054 
	C241.877579,93.829918 241.573212,92.823082 240.905518,91.179855 
	C231.918686,91.073311 222.931839,90.966759 213.312546,90.464798 
z"/>
<path fill="#F6F9F8" opacity="1.000000" stroke="none" 
	d="
M17.059036,68.773506 
	C17.230791,67.998940 17.180477,67.064270 17.606672,66.473160 
	C29.196550,50.398621 40.793549,34.312531 55.628807,20.962646 
	C64.034164,13.398874 73.341003,8.069325 85.325691,9.566892 
	C94.018829,10.653157 99.049133,15.614011 100.961632,23.227842 
	C108.718193,19.361135 116.124107,14.724073 124.174255,11.970220 
	C130.080994,9.949602 136.953201,9.299271 143.181290,9.983809 
	C154.788910,11.259618 161.192398,19.880779 159.284119,31.483814 
	C157.567383,41.922359 154.674347,52.186577 151.962692,62.438423 
	C146.150818,84.411255 140.163864,106.338348 134.085602,128.238922 
	C133.674637,129.719666 131.920975,131.917694 130.762238,131.936218 
	C115.296715,132.183731 99.825905,132.101730 83.920547,132.101730 
	C85.048668,127.395073 86.075111,123.112602 87.181808,118.495323 
	C83.435341,118.495323 80.052910,118.495323 76.539093,118.495323 
	C75.294151,123.082214 74.092300,127.510361 72.887390,131.949783 
	C56.225979,131.949783 39.931561,131.949783 23.146200,131.949783 
	C28.426416,112.369896 33.635235,93.054764 38.926102,73.122063 
	C38.983738,72.337120 38.959324,72.169746 38.934910,72.002365 
	C39.037693,71.588768 39.140476,71.175163 39.558342,70.121307 
	C32.268627,69.245193 24.663832,69.009354 17.059036,68.773506 
M78.870995,15.956568 
	C73.562088,14.245440 69.546341,17.419300 65.825920,20.076641 
	C50.034393,31.355860 38.905560,46.917912 26.799433,63.001907 
	C34.173126,63.001907 40.534523,63.001907 47.351482,63.001907 
	C41.633404,84.476776 36.074875,105.352455 30.473158,126.390327 
	C43.789307,126.390327 56.220253,126.390327 68.586845,126.390327 
	C69.879868,121.692009 71.093300,117.282913 72.207817,113.233215 
	C79.859459,113.233215 86.906349,113.233215 94.226227,113.233215 
	C93.125793,117.906647 92.121834,122.170372 91.086510,126.567284 
	C103.907394,126.567284 116.221107,126.567284 128.676315,126.567284 
	C129.128281,125.269608 129.637466,124.053047 129.978622,122.791061 
	C134.697006,105.336800 139.429596,87.886223 144.080521,70.413933 
	C147.323822,58.229614 150.802689,46.091656 153.512085,33.786728 
	C155.677673,23.951532 149.553986,15.513529 140.558899,15.057072 
	C137.123978,14.882767 133.377731,14.802966 130.244888,15.958484 
	C123.457619,18.461897 116.831390,21.516659 110.417000,24.876163 
	C106.093948,27.140341 102.245590,30.310865 98.036415,33.177032 
	C96.882866,29.321135 96.167961,25.731348 94.749527,22.445234 
	C91.977150,16.022415 86.088821,13.650566 78.870995,15.956568 
z"/>
<path fill="#005F41" opacity="1.000000" stroke="none" 
	d="
M130.701752,139.850800 
	C92.643181,140.236923 54.334782,140.295471 16.026434,140.272522 
	C14.989479,140.271896 13.953055,139.391144 13.026384,138.470383 
	C15.232458,138.346024 17.328064,138.952850 19.424675,138.956329 
	C54.640495,139.014877 89.856445,138.990631 125.072334,139.020035 
	C126.865669,139.021530 128.658737,139.340790 130.701752,139.850800 
z"/>
<path fill="#005E40" opacity="1.000000" stroke="none" 
	d="
M209.700958,49.877190 
	C194.951416,50.228985 179.960052,50.235493 164.504044,50.200607 
	C165.064056,49.772610 166.086990,49.054916 167.113647,49.049503 
	C180.599014,48.978405 194.084915,49.000832 207.570602,49.034069 
	C208.200516,49.035622 208.829636,49.358616 209.700958,49.877190 
z"/>
<path fill="#056244" opacity="1.000000" stroke="none" 
	d="
M17.299900,69.119522 
	C24.663832,69.009354 32.268627,69.245193 39.597115,69.799377 
	C32.060787,69.900322 24.800776,69.682938 17.299900,69.119522 
z"/>
<path fill="#056244" opacity="1.000000" stroke="none" 
	d="
M38.776997,72.083168 
	C38.959324,72.169746 38.983738,72.337120 38.920982,72.742798 
	C38.694771,72.804459 38.537598,72.637833 38.430283,72.443649 
	C38.405540,72.398872 38.551617,72.259705 38.776997,72.083168 
z"/>
<path fill="#05684D" opacity="1.000000" stroke="none" 
	d="
M241.517609,91.882614 
	C241.573212,92.823082 241.877579,93.829918 241.647034,94.694054 
	C238.270676,107.349480 234.998978,120.038841 231.224976,132.576431 
	C230.569565,134.753799 228.007401,137.238312 225.822723,137.887421 
	C221.522858,139.164978 219.777237,136.927078 220.941391,132.453247 
	C223.363373,123.145599 225.901031,113.868118 228.346710,104.566551 
	C228.750168,103.032120 228.928070,101.438385 229.205978,99.895477 
	C220.950150,98.123459 220.017838,98.665489 218.109161,105.839478 
	C215.763885,114.654388 213.512558,123.496918 210.968567,132.254288 
	C210.417068,134.152725 209.160110,136.519012 207.569138,137.265625 
	C205.743668,138.122269 202.993057,137.903534 201.043610,137.136765 
	C200.314926,136.850159 200.242859,133.585602 200.671188,131.879684 
	C203.324341,121.313049 206.205261,110.803612 208.996750,100.326981 
	C200.409363,96.995399 196.950424,98.564919 194.826584,106.419060 
	C192.445694,115.223824 190.286209,124.098206 187.540359,132.787445 
	C186.884094,134.864227 184.550644,137.342834 182.526581,137.873077 
	C177.372803,139.223206 175.787766,137.232681 177.175140,132.030930 
	C179.568787,123.056267 182.180557,114.137451 184.409286,105.123131 
	C184.857864,103.308823 184.650452,99.930023 183.641891,99.409058 
	C179.964203,97.509369 176.131729,99.498199 175.093246,103.274261 
	C172.365997,113.190880 169.605103,123.101418 167.113495,133.078293 
	C165.937912,137.785583 162.776169,138.740112 158.843185,137.923004 
	C157.723251,137.690323 155.995132,135.308655 156.240875,134.344437 
	C159.639191,121.010040 163.296844,107.740784 167.019241,94.491600 
	C167.344254,93.334839 168.570938,92.431412 170.045898,91.571915 
	C178.120331,91.822617 185.527908,91.971626 192.934845,91.945885 
	C194.276855,91.941216 195.616379,91.220299 196.957047,90.830048 
	C202.311661,88.555069 201.498581,83.095375 202.618271,78.924988 
	C203.933960,74.024567 206.653351,72.516495 211.212296,72.750626 
	C214.506668,72.919823 215.661713,74.458565 214.745010,77.627083 
	C213.919571,80.480125 212.946686,83.314964 212.451035,86.227966 
	C212.225555,87.553017 212.994614,89.047287 213.909454,90.983810 
	C223.510117,91.629417 232.513870,91.756012 241.517609,91.882614 
z"/>
<path fill="#005F41" opacity="1.000000" stroke="none" 
	d="
M196.501541,90.722137 
	C195.616379,91.220299 194.276855,91.941216 192.934845,91.945885 
	C185.527908,91.971626 178.120331,91.822617 170.384537,91.490860 
	C178.719406,91.036873 187.382721,90.825546 196.501541,90.722137 
z"/>
<path fill="#005F40" opacity="1.000000" stroke="none" 
	d="
M241.211563,91.531235 
	C232.513870,91.756012 223.510117,91.629417 214.225693,91.181519 
	C222.931839,90.966759 231.918686,91.073311 241.211563,91.531235 
z"/>
<path fill="#04684E" opacity="1.000000" stroke="none" 
	d="
M79.278580,15.959526 
	C86.088821,13.650566 91.977150,16.022415 94.749527,22.445234 
	C96.167961,25.731348 96.882866,29.321135 98.036415,33.177032 
	C102.245590,30.310865 106.093948,27.140341 110.417000,24.876163 
	C116.831390,21.516659 123.457619,18.461897 130.244888,15.958484 
	C133.377731,14.802966 137.123978,14.882767 140.558899,15.057072 
	C149.553986,15.513529 155.677673,23.951532 153.512085,33.786728 
	C150.802689,46.091656 147.323822,58.229614 144.080521,70.413933 
	C139.429596,87.886223 134.697006,105.336800 129.978622,122.791061 
	C129.637466,124.053047 129.128281,125.269608 128.676315,126.567284 
	C116.221107,126.567284 103.907394,126.567284 91.086510,126.567284 
	C92.121834,122.170372 93.125793,117.906647 94.226227,113.233215 
	C86.906349,113.233215 79.859459,113.233215 72.207817,113.233215 
	C71.093300,117.282913 69.879868,121.692009 68.586845,126.390327 
	C56.220253,126.390327 43.789307,126.390327 30.473158,126.390327 
	C36.074875,105.352455 41.633404,84.476776 47.351482,63.001907 
	C40.534523,63.001907 34.173126,63.001907 26.799433,63.001907 
	C38.905560,46.917912 50.034393,31.355860 65.825920,20.076641 
	C69.546341,17.419300 73.562088,14.245440 79.278580,15.959526 
M72.564407,103.574539 
	C86.829407,103.692467 101.094345,103.821724 115.359589,103.884521 
	C115.898331,103.886887 116.439903,103.245102 117.436119,102.407242 
	C119.318153,100.081711 121.920723,98.029228 122.927643,95.372078 
	C124.843544,90.316246 125.668457,84.858376 127.301811,79.679535 
	C128.185791,76.876747 127.505226,75.250732 124.444389,73.489250 
	C110.160492,73.355820 95.876663,73.210571 81.592461,73.137039 
	C81.081032,73.134407 80.565956,73.840027 79.563843,74.687920 
	C77.735855,76.610458 75.088104,78.230843 74.245598,80.516617 
	C72.319572,85.742035 71.427917,91.338554 69.813141,96.692970 
	C68.959206,99.524536 69.471313,101.491379 72.564407,103.574539 
M133.482712,41.486080 
	C132.679733,41.324841 131.876938,41.023933 131.073730,41.022812 
	C111.582596,40.995613 92.091347,40.980804 72.600403,41.046352 
	C71.387535,41.050426 70.176941,41.730442 68.438835,42.534695 
	C65.303879,44.240601 63.831741,46.491528 66.571739,50.563332 
	C75.027748,50.480373 83.483765,50.397415 92.580284,50.605019 
	C91.980568,59.590893 91.619102,59.954350 83.283821,59.954788 
	C78.286240,59.955051 73.282684,60.107346 68.292877,59.910564 
	C63.888142,59.736855 61.471920,61.764210 60.393997,65.859764 
	C57.480064,76.931213 54.615696,88.017097 51.541561,99.044258 
	C50.434937,103.013794 52.592461,104.384491 55.541759,103.627144 
	C57.650055,103.085739 60.283310,100.951202 60.923611,98.961548 
	C63.664829,90.443542 65.954689,81.762665 67.995880,73.044426 
	C69.019554,68.672157 71.107613,67.170250 75.593323,67.236488 
	C91.582085,67.472610 107.579475,67.152275 123.567024,67.426521 
	C128.905258,67.518097 131.584473,65.400459 132.697891,60.423214 
	C133.711441,55.892460 135.233429,51.461174 135.994308,46.896534 
	C136.234756,45.454037 134.744171,43.722988 133.482712,41.486080 
z"/>
<path fill="#F8FAF9" opacity="1.000000" stroke="none" 
	d="
M66.011780,49.939514 
	C63.831741,46.491528 65.303879,44.240601 69.168434,42.391571 
	C91.280624,42.206963 112.663216,42.165478 134.045807,42.123997 
	C134.744171,43.722988 136.234756,45.454037 135.994308,46.896534 
	C135.233429,51.461174 133.711441,55.892460 132.697891,60.423214 
	C131.584473,65.400459 128.905258,67.518097 123.567024,67.426521 
	C107.579475,67.152275 91.582085,67.472610 75.593323,67.236488 
	C71.107613,67.170250 69.019554,68.672157 67.995880,73.044426 
	C65.954689,81.762665 63.664829,90.443542 60.923611,98.961548 
	C60.283310,100.951202 57.650055,103.085739 55.541759,103.627144 
	C52.592461,104.384491 50.434937,103.013794 51.541561,99.044258 
	C54.615696,88.017097 57.480064,76.931213 60.393997,65.859764 
	C61.471920,61.764210 63.888142,59.736855 68.292877,59.910564 
	C73.282684,60.107346 78.286240,59.955051 83.283821,59.954788 
	C91.619102,59.954350 91.980568,59.590893 91.815704,50.312862 
	C82.704681,49.993641 74.358231,49.966576 66.011780,49.939514 
M108.624603,59.956360 
	C110.774368,59.956360 112.924141,59.956383 115.073906,59.956360 
	C123.381729,59.956264 123.381729,59.956257 124.799156,50.880730 
	C117.752396,50.880730 110.781990,50.880730 103.286377,50.880730 
	C102.596878,53.340443 101.778435,56.260117 100.742317,59.956360 
	C103.490036,59.956360 105.583534,59.956360 108.624603,59.956360 
z"/>
<path fill="#F4F7F6" opacity="1.000000" stroke="none" 
	d="
M124.964081,74.149857 
	C127.505226,75.250732 128.185791,76.876747 127.301811,79.679535 
	C125.668457,84.858376 124.843544,90.316246 122.927643,95.372078 
	C121.920723,98.029228 119.318153,100.081711 116.740723,102.640511 
	C101.357201,102.905403 86.669060,102.937019 71.980927,102.968643 
	C69.471313,101.491379 68.959206,99.524536 69.813141,96.692970 
	C71.427917,91.338554 72.319572,85.742035 74.245598,80.516617 
	C75.088104,78.230843 77.735855,76.610458 80.273438,74.465576 
	C95.643379,74.212112 110.303726,74.180984 124.964081,74.149857 
M116.633209,82.144012 
	C105.771278,82.170006 94.909355,82.195992 83.347275,82.422646 
	C82.269608,85.657486 81.044304,88.856026 80.232590,92.156273 
	C80.059868,92.858559 81.393013,93.931229 82.954254,94.988068 
	C90.432571,94.994141 97.912170,95.081161 105.388542,94.963692 
	C108.113579,94.920868 110.830978,94.391304 114.067497,93.617561 
	C114.992500,90.079994 115.917503,86.542427 116.633209,82.144012 
z"/>
<path fill="#005F41" opacity="1.000000" stroke="none" 
	d="
M133.764252,41.805038 
	C112.663216,42.165478 91.280624,42.206963 69.431664,42.172211 
	C70.176941,41.730442 71.387535,41.050426 72.600403,41.046352 
	C92.091347,40.980804 111.582596,40.995613 131.073730,41.022812 
	C131.876938,41.023933 132.679733,41.324841 133.764252,41.805038 
z"/>
<path fill="#005E40" opacity="1.000000" stroke="none" 
	d="
M124.704239,73.819550 
	C110.303726,74.180984 95.643379,74.212112 80.517799,74.229393 
	C80.565956,73.840027 81.081032,73.134407 81.592461,73.137039 
	C95.876663,73.210571 110.160492,73.355820 124.704239,73.819550 
z"/>
<path fill="#005A3A" opacity="1.000000" stroke="none" 
	d="
M72.272667,103.271591 
	C86.669060,102.937019 101.357201,102.905403 116.512741,102.888641 
	C116.439903,103.245102 115.898331,103.886887 115.359589,103.884521 
	C101.094345,103.821724 86.829407,103.692467 72.272667,103.271591 
z"/>
<path fill="#005A3A" opacity="1.000000" stroke="none" 
	d="
M66.291763,50.251419 
	C74.358231,49.966576 82.704681,49.993641 91.495453,50.167583 
	C83.483765,50.397415 75.027748,50.480373 66.291763,50.251419 
z"/>
<path fill="#05694E" opacity="1.000000" stroke="none" 
	d="
M108.150818,59.956360 
	C105.583534,59.956360 103.490036,59.956360 100.742317,59.956360 
	C101.778435,56.260117 102.596878,53.340443 103.286377,50.880730 
	C110.781990,50.880730 117.752396,50.880730 124.799156,50.880730 
	C123.381729,59.956257 123.381729,59.956264 115.073906,59.956360 
	C112.924141,59.956383 110.774368,59.956360 108.150818,59.956360 
z"/>
<path fill="#02684D" opacity="1.000000" stroke="none" 
	d="
M82.032379,94.833252 
	C81.393013,93.931229 80.059868,92.858559 80.232590,92.156273 
	C81.044304,88.856026 82.269608,85.657486 84.022858,82.570648 
	C95.413132,82.814056 106.127815,82.909454 116.842514,83.004860 
	C115.917503,86.542427 114.992500,90.079994 113.301529,93.832336 
	C107.083000,94.031204 101.627716,93.902496 96.178696,94.033577 
	C91.459572,94.147110 86.747543,94.555305 82.032379,94.833252 
z"/>
<path fill="#005F40" opacity="1.000000" stroke="none" 
	d="
M116.737854,82.574432 
	C106.127815,82.909454 95.413132,82.814056 84.372932,82.470322 
	C94.909355,82.195992 105.771278,82.170006 116.737854,82.574432 
z"/>
<path fill="#005837" opacity="1.000000" stroke="none" 
	d="
M82.493317,94.910660 
	C86.747543,94.555305 91.459572,94.147110 96.178696,94.033577 
	C101.627716,93.902496 107.083000,94.031204 113.043709,94.065460 
	C110.830978,94.391304 108.113579,94.920868 105.388542,94.963692 
	C97.912170,95.081161 90.432571,94.994141 82.493317,94.910660 
z"/>
</svg>